<?xml version="1.0" standalone="no"?>
<!DOCTYPE svg PUBLIC "-//W3C//DTD SVG 20010904//EN"
 "http://www.w3.org/TR/2001/REC-SVG-20010904/DTD/svg10.dtd">
<svg version="1.0" xmlns="http://www.w3.org/2000/svg"
 width="250.000000pt" height="250.000000pt" viewBox="0 0 250.000000 250.000000"
 preserveAspectRatio="xMidYMid meet">
<metadata>
Created by potrace 1.11, written by Peter Selinger 2001-2013
</metadata>
<g transform="translate(0.000000,250.000000) scale(0.100000,-0.100000)"
fill="#000000" stroke="none">
<path d="M1254 1739 c-17 -5 -52 -27 -78 -50 l-46 -41 -48 22 c-96 45 -218 7
-263 -82 -25 -48 -33 -146 -17 -187 44 -111 80 -153 168 -197 30 -16 57 -29
60 -29 3 -1 15 -5 28 -9 13 -4 47 -9 75 -10 59 -3 70 -19 43 -61 -21 -32 -20
-55 2 -57 9 0 23 -2 30 -2 8 -1 23 -17 35 -36 12 -20 65 -79 117 -131 117
-118 120 -123 161 -214 22 -49 32 -60 39 -40 7 19 -44 127 -85 180 -14 19 -65
74 -114 122 -48 48 -90 95 -93 104 -3 8 2 26 12 39 22 29 15 56 -15 64 -39 10
-38 33 3 49 55 22 113 68 146 115 127 185 74 430 -99 455 -16 2 -44 0 -61 -4z"/>
</g>
</svg>
